<mxfile host="app.diagrams.net" modified="2024-03-24T07:26:36.570Z" agent="Mozilla/5.0 (X11; Linux x86_64) AppleWebKit/537.36 (KHTML, like Gecko) Chrome/115.0.0.0 Safari/537.36" version="22.1.21" etag="puJ0tdg7RBzo67n7udVS" type="github">
  <diagram name="Page-1" id="g2ul3jNNQGWtTh18JaEm">
    <mxGraphModel>
      <root>
        <mxCell id="0" />
        <mxCell id="1" parent="0" />
      </root>
    </mxGraphModel>
  </diagram>
</mxfile>
